<?xml version="1.0" standalone="no"?>
<!DOCTYPE svg PUBLIC "-//W3C//DTD SVG 20010904//EN"
 "http://www.w3.org/TR/2001/REC-SVG-20010904/DTD/svg10.dtd">
<svg version="1.0" xmlns="http://www.w3.org/2000/svg"
 width="1008.000000pt" height="1008.000000pt" viewBox="0 0 1008.000000 1008.000000"
 preserveAspectRatio="xMidYMid meet">
<metadata>
Created by potrace 1.14, written by Peter Selinger 2001-2017
</metadata>
<g transform="translate(0.000000,1008.000000) scale(0.100000,-0.100000)"
fill="#000000" stroke="none">
<path d="M6359 8226 c-2 -2 -35 -6 -73 -9 -54 -3 -74 -9 -86 -24 -9 -11 -35
-87 -59 -169 -173 -595 -270 -924 -279 -938 -6 -11 -23 27 -82 194 -60 168
-218 598 -230 625 -18 42 -60 161 -60 171 0 6 -9 19 -20 29 -16 15 -31 17 -92
12 -116 -10 -293 -36 -478 -72 -104 -20 -214 -50 -225 -61 -10 -10 -12 -34
-10 -86 2 -40 7 -170 10 -288 4 -118 8 -232 9 -253 2 -27 -2 -41 -12 -44 -15
-6 -38 16 -132 127 -30 35 -59 69 -65 76 -5 6 -32 37 -60 70 -27 32 -88 98
-136 145 -120 119 -162 129 -339 80 -77 -20 -221 -71 -275 -96 -128 -58 -185
-83 -185 -80 0 13 -484 -243 -580 -306 -166 -111 -227 -175 -259 -276 -17 -50
-17 -88 -6 -343 13 -309 13 -329 0 -333 -10 -5 -59 34 -295 236 -135 116 -175
139 -250 143 -68 3 -129 -20 -255 -98 -81 -50 -322 -221 -335 -237 -3 -3 -61
-51 -130 -105 -159 -127 -269 -224 -397 -352 -86 -86 -108 -116 -143 -188 -52
-107 -55 -144 -54 -606 0 -316 1 -338 21 -380 11 -25 29 -52 39 -61 10 -9 190
-134 398 -279 209 -144 385 -267 391 -274 22 -22 24 -49 31 -308 l6 -263 -29
-36 c-52 -68 -33 -68 -298 7 -91 25 -107 21 -181 -48 -108 -101 -160 -155
-276 -287 l-109 -125 3 -565 c3 -545 4 -567 23 -600 11 -19 33 -43 48 -55 28
-21 35 -21 580 -21 l552 0 56 28 c75 38 110 73 274 272 77 94 144 175 150 181
5 7 30 36 55 65 25 30 63 74 85 99 22 25 69 79 105 120 35 41 80 91 100 111
19 20 74 78 121 130 48 52 108 117 135 144 77 81 109 171 108 305 -1 57 -18
309 -29 428 -8 80 -10 80 235 -31 249 -112 243 -110 307 -111 64 0 123 24 313
130 356 198 528 282 900 438 153 64 198 129 200 289 0 20 5 37 10 37 6 0 40
-41 76 -90 44 -60 75 -92 91 -96 14 -4 62 1 107 11 44 9 92 19 106 21 14 3 48
9 75 14 28 5 70 12 95 15 103 14 114 19 125 53 11 37 21 41 30 12 10 -31 35
-38 100 -30 33 5 87 11 120 14 33 3 92 8 130 12 39 3 78 13 87 21 9 8 22 37
28 64 16 66 27 70 35 12 10 -81 4 -78 176 -79 85 -1 207 -4 271 -8 112 -6 117
-6 137 16 12 12 21 26 21 30 0 5 5 6 10 3 6 -3 10 -15 10 -26 0 -27 28 -35
140 -44 52 -3 111 -8 130 -10 19 -2 73 -6 120 -10 47 -3 112 -8 145 -11 109
-11 125 -11 139 0 8 6 44 70 81 141 86 167 88 168 145 160 25 -4 63 -9 85 -11
52 -6 115 -23 115 -32 0 -4 7 -45 15 -92 8 -47 17 -105 20 -130 12 -80 25 -91
125 -105 30 -4 64 -9 75 -11 10 -2 37 -6 60 -9 22 -3 81 -13 130 -21 188 -32
181 -35 345 110 14 12 52 44 85 71 323 268 425 363 425 394 0 12 -14 79 -31
149 -17 70 -33 136 -35 147 -2 11 -19 84 -38 162 -20 78 -37 152 -40 165 -2
12 -14 61 -26 108 -11 47 -23 96 -26 110 -3 14 -22 95 -43 180 -32 127 -109
446 -117 485 -1 6 -39 156 -84 335 -45 179 -83 333 -85 343 -2 10 -7 27 -10
37 -3 10 -7 27 -9 37 -2 10 -23 90 -46 178 -23 88 -44 169 -46 179 -4 20 -39
152 -100 371 -20 72 -40 147 -45 169 -19 76 -34 94 -91 105 -29 5 -84 12 -123
15 -38 3 -104 9 -145 12 -121 11 -263 11 -287 1 -15 -7 -39 -47 -77 -131 -30
-66 -72 -159 -94 -206 -137 -293 -229 -508 -237 -555 -10 -51 -20 -103 -40
-195 -3 -14 -12 -59 -20 -100 -8 -41 -22 -109 -31 -150 -8 -41 -18 -84 -20
-95 -2 -11 -15 -78 -30 -150 -14 -71 -28 -141 -30 -154 -3 -13 -32 -157 -65
-320 -34 -163 -63 -307 -66 -321 -3 -14 -6 -29 -8 -35 -1 -5 -6 -29 -10 -53
-8 -42 -20 -60 -33 -48 -7 7 -7 1 -16 481 -4 182 -9 425 -11 540 -3 116 -7
323 -10 460 -21 1027 -23 1057 -38 1072 -7 8 -29 16 -48 20 -35 6 -634 14
-640 9z m-4059 -2804 c204 -129 185 -120 228 -96 20 11 61 36 90 54 34 22 56
30 62 24 11 -11 11 -17 36 -544 3 -74 7 -157 9 -185 4 -92 -6 -94 -108 -28
-536 348 -520 337 -551 386 -8 12 -17 45 -20 72 -26 246 -22 278 43 346 26 27
56 49 66 49 11 0 76 -35 145 -78z"/>
</g>
</svg>
